General
Format                                   : Matroska
Format version                           : Version 4 / Version 2
File size                                : 8.01 GiB
Duration                                 : 1h 55mn
Overall bit rate                         : 9 954 Kbps
Encoded date                             : UTC 2013-03-18 05:55:06
Writing application                      : mkvmerge v6.1.0 ('Old Devil') built on Mar  2 2013 22:22:31
Writing library                          : libebml v1.3.0 + libmatroska v1.4.0

Video
ID                                       : 1
Format                                   : AVC
Format/Info                              : Advanced Video Codec
Format profile                           : High@L4.1
Format settings, CABAC                   : Yes
Format settings, ReFrames                : 5 frames
Codec ID                                 : V_MPEG4/ISO/AVC
Duration                                 : 1h 55mn
Bit rate                                 : 8 364 Kbps
Width                                    : 1 920 pixels
Height                                   : 800 pixels
Display aspect ratio                     : 2.40:1
Frame rate                               : 23.976 fps
Color space                              : YUV
Chroma subsampling                       : 4:2:0
Bit depth                                : 8 bits
Scan type                                : Progressive
Bits/(Pixel*Frame)                       : 0.227
Stream size                              : 6.72 GiB (84%)
Writing library                          : x264 core 129 r2245 bc13772
Language                                 : English
Default                                  : Yes
Forced                                   : No

Audio
ID                                       : 2
Format                                   : DTS
Format/Info                              : Digital Theater Systems
Codec ID                                 : A_DTS
Duration                                 : 1h 55mn
Bit rate mode                            : Constant
Bit rate                                 : 1 411.2 Kbps
Channel(s)                               : 2 channels
Channel positions                        : Front: L R
Sampling rate                            : 48.0 KHz
Bit depth                                : 16 bits
Compression mode                         : Lossy
Stream size                              : 1.14 GiB (14%)
Default                                  : Yes
Forced                                   : No
